# xmcd
#
# Track frame offsets: 
#        150
#        24923
#        51247
#        74504
#        101450
#        126243
#        151780
#        174790
#        202051
#        225101
#
# Disc length: 3376 seconds
#
# Revision: 7
# Processed by: cddbd v1.5.2PL0 Copyright (c) Steve Scherf et al.
# Submitted via: ExactAudioCopy v0.99pb4
#
DISCID=750d2e0a
DTITLE=Pupy Y Los Que Son Son - Qué Cosas Tiene La Vida
DYEAR=2004
DGENRE=Latin
TTITLE0=Qué Cosas Tiene La Vida
TTITLE1=El Vecino Se Mudó
TTITLE2=El Gato Amaga Y No Araña
TTITLE3=Mamita Pórtate Bien
TTITLE4=La Bomba Soy Yo
TTITLE5=Ay Papá
TTITLE6=El Pregonero
TTITLE7=Juégala
TTITLE8=Te Molesta Que Sea Feliz
TTITLE9=Hoy Se Cumplen Seis Semanas
EXTD=YEAR: 2002
EXTT0=
EXTT1=
EXTT2=
EXTT3=
EXTT4=
EXTT5=
EXTT6=
EXTT7=
EXTT8=
EXTT9=
PLAYORDER=
